<svg width="408" height="389" viewBox="0 0 408 389" fill="none" xmlns="http://www.w3.org/2000/svg">
<path d="M25.5 228.436C17.2833 213.241 10.9792 197.877 6.5875 182.344C2.19583 166.811 0 150.602 0 133.719C0 96.5746 10.6958 65.0022 32.0875 39.0013C53.4792 13.0004 80.1833 0 112.2 0C129.767 0 146.483 4.38976 162.35 13.1693C178.217 21.9488 192.1 34.4427 204 50.651C215.9 34.4427 229.783 21.9488 245.65 13.1693C261.517 4.38976 278.233 0 295.8 0C327.817 0 354.521 13.0004 375.913 39.0013C397.304 65.0022 408 96.5746 408 133.719C408 149.927 405.804 165.967 401.413 181.837C397.021 197.708 390.717 213.241 382.5 228.436C380.233 222.358 377.188 217.04 373.363 212.481C369.538 207.923 365.217 204.293 360.4 201.591C366.067 190.448 370.317 179.051 373.15 167.402C375.983 155.752 377.4 144.524 377.4 133.719C377.4 106.705 369.679 83.7431 354.238 64.8333C338.796 45.9236 319.317 36.4688 295.8 36.4688C279.367 36.4688 263.358 42.378 247.775 54.1966C232.192 66.0152 217.6 83.5742 204 106.874C190.4 83.5742 175.808 66.0152 160.225 54.1966C144.642 42.378 128.633 36.4688 112.2 36.4688C88.6833 36.4688 69.2042 45.9236 53.7625 64.8333C38.3208 83.7431 30.6 106.705 30.6 133.719C30.6 145.537 32.0167 157.018 34.85 168.161C37.6833 179.305 41.9333 190.448 47.6 201.591C43.35 204.293 39.3833 207.923 35.7 212.481C32.0167 217.04 28.6167 222.358 25.5 228.436ZM0 389V363.674C0 348.817 6.375 337.167 19.125 328.725C31.875 320.283 49.3 316.062 71.4 316.062C74.8 316.062 77.8458 316.147 80.5375 316.316C83.2292 316.485 85.7083 316.907 87.975 317.582C86.275 321.972 84.7875 327.037 83.5125 332.777C82.2375 338.518 81.6 345.271 81.6 353.038V389H0ZM102 389V353.038C102 330.751 111.279 312.939 129.838 299.601C148.396 286.263 173.117 279.594 204 279.594C234.883 279.594 259.604 286.263 278.163 299.601C296.721 312.939 306 330.751 306 353.038V389H102ZM326.4 389V353.038C326.4 344.934 325.763 338.096 324.488 332.524C323.213 326.952 321.725 321.972 320.025 317.582C322.292 316.907 324.771 316.485 327.463 316.316C330.154 316.147 333.2 316.062 336.6 316.062C358.7 316.062 376.125 320.283 388.875 328.725C401.625 337.167 408 348.817 408 363.674V389H326.4ZM204 316.062C182.75 316.062 166.317 319.439 154.7 326.193C143.083 332.946 135.717 341.726 132.6 352.531H275.4C272.283 341.726 264.917 332.946 253.3 326.193C241.683 319.439 225.25 316.062 204 316.062ZM71.4 291.75C62.9 291.75 55.675 288.204 49.725 281.113C43.775 274.022 40.8 265.411 40.8 255.281C40.8 245.151 43.775 236.54 49.725 229.449C55.675 222.358 62.9 218.813 71.4 218.813C79.9 218.813 87.125 222.358 93.075 229.449C99.025 236.54 102 245.151 102 255.281C102 265.411 99.025 274.022 93.075 281.113C87.125 288.204 79.9 291.75 71.4 291.75ZM336.6 291.75C328.1 291.75 320.875 288.204 314.925 281.113C308.975 274.022 306 265.411 306 255.281C306 245.151 308.975 236.54 314.925 229.449C320.875 222.358 328.1 218.813 336.6 218.813C345.1 218.813 352.325 222.358 358.275 229.449C364.225 236.54 367.2 245.151 367.2 255.281C367.2 265.411 364.225 274.022 358.275 281.113C352.325 288.204 345.1 291.75 336.6 291.75ZM204 267.438C189.833 267.438 177.792 261.528 167.875 249.71C157.958 237.891 153 223.54 153 206.656C153 189.773 157.958 175.421 167.875 163.603C177.792 151.784 189.833 145.875 204 145.875C218.167 145.875 230.208 151.784 240.125 163.603C250.042 175.421 255 189.773 255 206.656C255 223.54 250.042 237.891 240.125 249.71C230.208 261.528 218.167 267.438 204 267.438ZM204 182.344C198.333 182.344 193.517 184.707 189.55 189.435C185.583 194.162 183.6 199.903 183.6 206.656C183.6 213.41 185.583 219.15 189.55 223.878C193.517 228.605 198.333 230.969 204 230.969C209.667 230.969 214.483 228.605 218.45 223.878C222.417 219.15 224.4 213.41 224.4 206.656C224.4 199.903 222.417 194.162 218.45 189.435C214.483 184.707 209.667 182.344 204 182.344Z" fill="#002584" fill-opacity="0.47"/>
</svg>
